<?xml version="1.0" standalone="no"?>
<!DOCTYPE svg PUBLIC "-//W3C//DTD SVG 20010904//EN"
 "http://www.w3.org/TR/2001/REC-SVG-20010904/DTD/svg10.dtd">
<svg version="1.0" xmlns="http://www.w3.org/2000/svg"
 width="234.000000pt" height="234.000000pt" viewBox="0 0 234.000000 234.000000"
 preserveAspectRatio="xMidYMid meet">
<metadata>
Created by potrace 1.14, written by Peter Selinger 2001-2017
</metadata>
<g transform="translate(0.000000,234.000000) scale(0.100000,-0.100000)"
fill="#000000" stroke="none">
<path d="M247 1632 c-10 -10 -17 -26 -17 -35 0 -9 -5 -19 -10 -22 -7 -4 -8
-24 -4 -52 6 -41 5 -45 -11 -40 -43 17 -65 19 -66 6 -3 -40 0 -132 5 -137 3
-3 21 -1 40 5 28 9 36 8 40 -4 10 -24 7 -28 -26 -48 -40 -23 -51 -34 -67 -63
-10 -19 -18 -22 -45 -17 -45 9 -64 -14 -48 -58 10 -27 9 -37 -11 -77 -48 -99
-25 -238 54 -318 61 -61 117 -85 203 -85 164 -1 289 122 288 284 -1 52 -17
114 -36 138 -6 8 -11 37 -11 65 l0 51 -41 -1 c-36 0 -44 4 -59 28 -9 16 -34
40 -55 53 -30 19 -37 29 -33 45 4 17 11 20 27 15 72 -23 72 -23 72 53 -1 39
-4 73 -8 77 -3 4 -23 2 -44 -4 -21 -6 -40 -9 -42 -6 -2 2 1 20 8 40 9 27 9 40
1 48 -6 6 -11 19 -11 28 0 20 -36 49 -61 49 -9 0 -23 -8 -32 -18z m56 -47 c-1
-16 2 -34 8 -41 5 -7 7 -30 3 -54 l-7 -42 52 7 51 7 0 -36 c0 -42 -12 -45 -85
-20 -43 14 -49 14 -100 -5 -30 -11 -56 -17 -58 -13 -3 4 -5 22 -5 40 l-1 33
43 -6 c52 -8 61 1 47 50 -8 29 -7 37 5 42 11 4 14 13 9 30 -7 30 2 45 23 41
12 -3 16 -13 15 -33z m5 -223 c4 -28 -24 -40 -45 -19 -14 13 -14 19 -3 32 18
22 44 15 48 -13z m27 -72 c33 -13 75 -58 75 -81 0 -26 -51 -25 -75 1 -23 26
-69 26 -106 -1 -30 -21 -70 -23 -76 -3 -5 15 45 74 71 84 29 12 80 12 111 0z
m-220 -108 c50 -31 82 -32 121 -5 37 25 65 24 92 -3 20 -20 82 -17 117 6 17
11 36 20 43 20 19 0 14 -28 -7 -42 -19 -11 -19 -13 4 -42 47 -63 61 -169 31
-239 -19 -47 -72 -105 -117 -127 -123 -63 -272 -12 -335 115 -23 48 -26 64
-22 119 5 63 40 146 62 146 5 0 -2 13 -17 28 -15 16 -24 31 -20 35 9 10 15 9
48 -11z"/>
<path d="M255 1000 c-35 -39 9 -94 55 -70 38 20 26 76 -18 85 -11 2 -28 -5
-37 -15z"/>
<path d="M1049 1382 c-12 -2 -14 -20 -11 -97 3 -61 0 -100 -7 -108 -17 -21 -3
-27 64 -27 69 0 82 6 61 29 -8 9 -20 37 -27 62 -10 37 -10 53 0 78 8 17 17 31
22 31 11 0 12 30 2 31 -23 3 -92 4 -104 1z m48 -66 c-9 -23 -12 -27 -15 -13
-6 29 8 74 18 58 4 -8 3 -28 -3 -45z m1 -103 c9 -27 8 -33 -4 -33 -10 0 -14
11 -14 37 0 42 3 41 18 -4z"/>
<path d="M1388 1379 c-6 -4 -7 -16 -3 -30 11 -32 12 -159 3 -165 -5 -3 -8 -12
-8 -20 0 -10 14 -14 55 -14 l55 0 0 35 c0 28 -4 35 -19 35 -14 0 -18 -5 -14
-20 4 -13 0 -20 -9 -20 -19 0 -18 68 2 81 13 8 13 11 0 22 -21 16 -25 67 -5
67 8 0 15 -9 15 -20 0 -11 7 -20 15 -20 10 0 15 11 15 35 0 19 -3 35 -7 36
-37 4 -86 3 -95 -2z"/>
<path d="M1728 1382 c-20 -4 -24 -17 -8 -27 12 -7 14 -175 2 -175 -5 0 -9 -7
-9 -15 0 -13 11 -15 56 -13 58 3 57 1 52 53 -2 23 -31 18 -31 -5 0 -11 -4 -20
-10 -20 -5 0 -10 16 -10 35 0 19 5 35 10 35 6 0 10 9 10 21 0 11 -4 17 -10 14
-6 -4 -10 8 -10 29 0 20 5 36 10 36 6 0 10 -9 10 -20 0 -21 29 -29 31 -7 0 6
2 20 4 29 2 10 -1 20 -6 23 -11 7 -69 12 -91 7z"/>
<path d="M2078 1382 c-16 -2 -28 -9 -28 -18 0 -8 4 -14 8 -14 5 0 9 -38 9 -85
0 -47 -4 -85 -8 -85 -5 0 -9 -7 -9 -15 0 -10 10 -15 28 -15 34 0 45 9 32 24
-10 13 -17 92 -8 101 3 3 13 -24 23 -60 10 -37 23 -65 30 -65 19 0 21 15 19
113 -1 48 2 87 7 87 14 0 11 28 -3 33 -7 2 -21 2 -30 -1 -14 -3 -16 -13 -12
-56 l4 -51 -13 45 c-20 66 -20 65 -49 62z"/>
<path d="M893 1084 c-19 -30 -22 -158 -5 -191 16 -30 50 -35 73 -12 23 23 26
69 4 69 -8 0 -15 -9 -15 -19 0 -24 -18 -37 -25 -18 -5 13 -9 100 -6 140 2 26
20 21 27 -8 9 -37 28 -25 32 18 3 30 0 37 -15 38 -10 0 -26 2 -36 4 -10 2 -24
-7 -34 -21z"/>
<path d="M1280 1100 c0 -3 -16 -4 -35 -2 -27 3 -35 1 -35 -12 0 -9 4 -16 9
-16 5 0 8 -38 8 -85 0 -47 -4 -85 -9 -85 -4 0 -8 -6 -8 -14 0 -11 15 -15 65
-15 37 0 68 5 72 12 3 6 1 13 -5 15 -15 5 -17 168 -2 177 20 12 10 23 -25 27
-19 2 -35 1 -35 -2z m10 -61 c0 -19 -5 -29 -15 -29 -14 0 -19 41 -8 63 9 16
23 -5 23 -34z m-2 -103 c-4 -51 -22 -50 -26 2 -2 30 1 39 13 39 12 0 15 -9 13
-41z"/>
<path d="M1578 1099 c-6 -4 -7 -16 -2 -30 10 -31 12 -169 2 -169 -5 0 -8 -7
-8 -15 0 -11 13 -15 53 -15 l53 0 0 32 c-1 23 -6 34 -19 36 -10 2 -17 0 -16
-5 3 -18 -2 -33 -11 -33 -16 0 -11 60 6 78 15 14 15 17 0 27 -21 16 -21 65 -1
65 8 0 15 -9 15 -20 0 -19 18 -29 21 -12 6 34 5 54 -5 59 -14 9 -74 10 -88 2z"/>
<path d="M1924 1092 c-23 -22 -16 -66 16 -110 31 -43 40 -87 18 -79 -7 2 -14
9 -14 15 -1 7 -2 17 -3 22 0 6 -8 10 -16 10 -11 0 -15 -11 -15 -39 0 -36 2
-39 32 -43 37 -6 68 20 68 56 0 13 -15 47 -34 74 -22 34 -30 55 -25 64 7 10
10 8 15 -9 11 -39 36 -28 32 14 -3 32 -6 36 -32 38 -16 0 -35 -5 -42 -13z"/>
<path d="M2256 1091 c-24 -27 -16 -67 23 -121 27 -38 32 -70 10 -70 -9 0 -13
14 -10 38 1 6 -6 12 -17 12 -15 0 -18 -8 -18 -39 0 -37 2 -40 34 -43 47 -6 66
15 59 64 -3 21 -17 54 -31 73 -27 34 -34 65 -16 65 6 0 10 -9 10 -21 0 -14 5
-19 17 -17 23 4 25 68 1 68 -9 0 -23 2 -30 5 -8 3 -22 -3 -32 -14z"/>
</g>
</svg>
